<?xml version="1.0" encoding="UTF-8" standalone="no"?>
<!-- Created with Inkscape (http://www.inkscape.org/) -->

<svg
   xmlns:dc="http://purl.org/dc/elements/1.1/"
   xmlns:cc="http://creativecommons.org/ns#"
   xmlns:rdf="http://www.w3.org/1999/02/22-rdf-syntax-ns#"
   xmlns:svg="http://www.w3.org/2000/svg"
   xmlns="http://www.w3.org/2000/svg"
   xmlns:xlink="http://www.w3.org/1999/xlink"
   xmlns:sodipodi="http://sodipodi.sourceforge.net/DTD/sodipodi-0.dtd"
   xmlns:inkscape="http://www.inkscape.org/namespaces/inkscape"
   version="1.0"
   width="96"
   height="96"
   id="svg2408"
   style="enable-background:new"
   inkscape:version="0.48.4 r9939"
   sodipodi:docname="utilities-terminal.svg">
  <sodipodi:namedview
     pagecolor="#ffffff"
     bordercolor="#666666"
     borderopacity="1"
     objecttolerance="10"
     gridtolerance="10"
     guidetolerance="10"
     inkscape:pageopacity="0"
     inkscape:pageshadow="2"
     inkscape:window-width="1280"
     inkscape:window-height="745"
     id="namedview120"
     showgrid="false"
     inkscape:zoom="1"
     inkscape:cx="20.462411"
     inkscape:cy="65.882057"
     inkscape:window-x="0"
     inkscape:window-y="27"
     inkscape:window-maximized="1"
     inkscape:current-layer="svg2408" />
  <defs
     id="defs2410">
    <linearGradient
       id="linearGradient3901">
      <stop
         id="stop3903"
         style="stop-color:#ffffff;stop-opacity:1"
         offset="0" />
      <stop
         id="stop3905"
         style="stop-color:#ffffff;stop-opacity:0"
         offset="1" />
    </linearGradient>
    <linearGradient
       id="linearGradient3920">
      <stop
         id="stop3922"
         style="stop-color:#4b4b4b;stop-opacity:1"
         offset="0" />
      <stop
         id="stop3924"
         style="stop-color:#141414;stop-opacity:1"
         offset="1" />
    </linearGradient>
    <linearGradient
       id="linearGradient4119">
      <stop
         id="stop4121"
         style="stop-color:#949494;stop-opacity:0.59842521"
         offset="0" />
      <stop
         id="stop3954"
         style="stop-color:#949494;stop-opacity:0.21259843"
         offset="0.5" />
      <stop
         id="stop4123"
         style="stop-color:#949494;stop-opacity:0"
         offset="1" />
    </linearGradient>
    <linearGradient
       id="linearGradient4055">
      <stop
         id="stop4057"
         style="stop-color:#c9c9c9;stop-opacity:1"
         offset="0" />
      <stop
         id="stop4059"
         style="stop-color:#c9c9c9;stop-opacity:0"
         offset="1" />
    </linearGradient>
    <linearGradient
       id="linearGradient4367">
      <stop
         id="stop4369"
         style="stop-color:#ffffff;stop-opacity:0.71755725"
         offset="0" />
      <stop
         id="stop4371"
         style="stop-color:#ffffff;stop-opacity:1"
         offset="1" />
    </linearGradient>
    <linearGradient
       x1="45.447727"
       y1="92.539597"
       x2="45.447727"
       y2="7.0165396"
       id="ButtonShadow"
       gradientUnits="userSpaceOnUse"
       gradientTransform="scale(1.0058652,0.994169)">
      <stop
         id="stop3750"
         style="stop-color:#000000;stop-opacity:1"
         offset="0" />
      <stop
         id="stop3752"
         style="stop-color:#000000;stop-opacity:0.58823532"
         offset="1" />
    </linearGradient>
    <linearGradient
       id="linearGradient3737">
      <stop
         id="stop3739"
         style="stop-color:#ffffff;stop-opacity:1"
         offset="0" />
      <stop
         id="stop3741"
         style="stop-color:#ffffff;stop-opacity:0"
         offset="1" />
    </linearGradient>
    <filter
       color-interpolation-filters="sRGB"
       id="filter3174">
      <feGaussianBlur
         id="feGaussianBlur3176"
         stdDeviation="1.71" />
    </filter>
    <filter
       x="-0.192"
       y="-0.192"
       width="1.3839999"
       height="1.3839999"
       color-interpolation-filters="sRGB"
       id="filter3794">
      <feGaussianBlur
         id="feGaussianBlur3796"
         stdDeviation="5.28" />
    </filter>
    <linearGradient
       x1="48"
       y1="20.220806"
       x2="48"
       y2="138.66119"
       id="linearGradient3613"
       xlink:href="#linearGradient3737"
       gradientUnits="userSpaceOnUse" />
    <linearGradient
       x1="45.447727"
       y1="92.539597"
       x2="45.447727"
       y2="7.0165396"
       id="ButtonShadow-0"
       gradientUnits="userSpaceOnUse"
       gradientTransform="matrix(1.0058652,0,0,0.994169,100,0)">
      <stop
         id="stop3750-8"
         style="stop-color:#000000;stop-opacity:1"
         offset="0" />
      <stop
         id="stop3752-5"
         style="stop-color:#000000;stop-opacity:0.58823532"
         offset="1" />
    </linearGradient>
    <linearGradient
       x1="32.251034"
       y1="6.1317081"
       x2="32.251034"
       y2="90.238609"
       id="linearGradient3780"
       xlink:href="#ButtonShadow-0"
       gradientUnits="userSpaceOnUse"
       gradientTransform="matrix(1.0238095,0,0,1.0119048,-1.1428571,-98.071429)" />
    <linearGradient
       x1="32.251034"
       y1="6.1317081"
       x2="32.251034"
       y2="90.238609"
       id="linearGradient3772"
       xlink:href="#ButtonShadow-0"
       gradientUnits="userSpaceOnUse"
       gradientTransform="matrix(1.0238095,0,0,1.0119048,-1.1428571,-98.071429)" />
    <linearGradient
       x1="32.251034"
       y1="6.1317081"
       x2="32.251034"
       y2="90.238609"
       id="linearGradient3725"
       xlink:href="#ButtonShadow-0"
       gradientUnits="userSpaceOnUse"
       gradientTransform="matrix(1.0238095,0,0,1.0119048,-1.1428571,-98.071429)" />
    <linearGradient
       x1="32.251034"
       y1="6.1317081"
       x2="32.251034"
       y2="90.238609"
       id="linearGradient3721"
       xlink:href="#ButtonShadow-0"
       gradientUnits="userSpaceOnUse"
       gradientTransform="translate(0,-97)" />
    <linearGradient
       x1="32.251034"
       y1="6.1317081"
       x2="32.251034"
       y2="90.238609"
       id="linearGradient3026"
       xlink:href="#ButtonShadow-0"
       gradientUnits="userSpaceOnUse"
       gradientTransform="matrix(1.0238095,0,0,1.0119048,-1.1428571,-98.071429)" />
    <clipPath
       id="clipPath4355">
      <rect
         width="84"
         height="80"
         rx="6"
         ry="6"
         x="6"
         y="6"
         id="rect4357"
         style="fill:#ffffff;fill-opacity:1;fill-rule:nonzero;stroke:none" />
    </clipPath>
    <radialGradient
       cx="48"
       cy="87.792389"
       r="42"
       fx="48"
       fy="87.792389"
       id="radialGradient4375"
       xlink:href="#linearGradient4367"
       gradientUnits="userSpaceOnUse"
       gradientTransform="matrix(1,-6.7114942e-8,8.4282233e-8,1.2557894,109.99999,-24.505592)" />
    <linearGradient
       x1="48"
       y1="88"
       x2="48"
       y2="-40"
       id="linearGradient4390"
       xlink:href="#linearGradient4055"
       gradientUnits="userSpaceOnUse"
       gradientTransform="matrix(1,0,0,-1,0,92)" />
    <linearGradient
       x1="48"
       y1="82"
       x2="112.12357"
       y2="82.454597"
       id="linearGradient4429"
       xlink:href="#linearGradient4055"
       gradientUnits="userSpaceOnUse"
       spreadMethod="reflect" />
    <linearGradient
       id="linearGradient3892">
      <stop
         id="stop3894"
         style="stop-color:#000000;stop-opacity:0.58823532"
         offset="0" />
      <stop
         id="stop3896"
         style="stop-color:#000000;stop-opacity:0.47058824"
         offset="0.11780351" />
      <stop
         id="stop3898"
         style="stop-color:#000000;stop-opacity:0.39215687"
         offset="0.23809524" />
      <stop
         id="stop3900"
         style="stop-color:#000000;stop-opacity:0.3137255"
         offset="1" />
    </linearGradient>
    <linearGradient
       x1="90"
       y1="88"
       x2="48"
       y2="88"
       id="linearGradient3228"
       xlink:href="#linearGradient3892"
       gradientUnits="userSpaceOnUse"
       spreadMethod="reflect" />
    <radialGradient
       cx="48"
       cy="3.0000064"
       r="36"
       fx="48"
       fy="3.0000064"
       id="radialGradient4089"
       xlink:href="#linearGradient4119"
       gradientUnits="userSpaceOnUse"
       gradientTransform="matrix(-1.0277778,0,0,-0.22222219,97.333337,6.666668)" />
    <radialGradient
       cx="47.099998"
       cy="-18.000002"
       r="36"
       fx="47.099998"
       fy="-18.000002"
       id="radialGradient4095"
       xlink:href="#linearGradient4119"
       gradientUnits="userSpaceOnUse"
       gradientTransform="matrix(0.02777778,0.94444447,-0.16659462,0.00489984,85.692963,1.604863)" />
    <radialGradient
       cx="14.700001"
       cy="-12.000003"
       r="36"
       fx="14.700001"
       fy="-12.000003"
       id="radialGradient4099"
       xlink:href="#linearGradient4119"
       gradientUnits="userSpaceOnUse"
       gradientTransform="matrix(0,0.86111111,0.16666666,0,9,12.341666)" />
    <radialGradient
       cx="-26.75"
       cy="48"
       r="42"
       fx="-26.75"
       fy="48"
       id="radialGradient3940"
       xlink:href="#linearGradient3920"
       gradientUnits="userSpaceOnUse"
       gradientTransform="matrix(1.7142857,-1.2662338e-8,1.5476191e-8,2.0952381,21.857142,-52.571429)" />
    <radialGradient
       cx="32"
       cy="14.5"
       r="26"
       fx="32"
       fy="14.5"
       id="radialGradient3907"
       xlink:href="#linearGradient3901"
       gradientUnits="userSpaceOnUse"
       gradientTransform="matrix(1,0,0,0.05769231,0,13.663462)" />
    <radialGradient
       cx="32"
       cy="14.5"
       r="26"
       fx="32"
       fy="14.5"
       id="radialGradient3911"
       xlink:href="#linearGradient3901"
       gradientUnits="userSpaceOnUse"
       gradientTransform="matrix(1,0,0,0.05769231,0,13.663462)" />
    <radialGradient
       cx="32"
       cy="14.5"
       r="26"
       fx="32"
       fy="14.5"
       id="radialGradient3915"
       xlink:href="#linearGradient3901"
       gradientUnits="userSpaceOnUse"
       gradientTransform="matrix(1,0,0,0.05769231,0,13.663462)" />
    <radialGradient
       cx="32"
       cy="14.5"
       r="26"
       fx="32"
       fy="14.5"
       id="radialGradient3919"
       xlink:href="#linearGradient3901"
       gradientUnits="userSpaceOnUse"
       gradientTransform="matrix(1,0,0,0.05769231,0,13.663462)" />
    <radialGradient
       cx="32"
       cy="14.5"
       r="26"
       fx="32"
       fy="14.5"
       id="radialGradient3923"
       xlink:href="#linearGradient3901"
       gradientUnits="userSpaceOnUse"
       gradientTransform="matrix(1,0,0,0.05769231,0,13.663462)" />
    <radialGradient
       cx="32"
       cy="14.5"
       r="26"
       fx="32"
       fy="14.5"
       id="radialGradient3927"
       xlink:href="#linearGradient3901"
       gradientUnits="userSpaceOnUse"
       gradientTransform="matrix(1,0,0,0.05769231,0,13.663462)" />
    <radialGradient
       cx="32"
       cy="14.5"
       r="26"
       fx="32"
       fy="14.5"
       id="radialGradient3931"
       xlink:href="#linearGradient3901"
       gradientUnits="userSpaceOnUse"
       gradientTransform="matrix(1,0,0,0.05769231,0,13.663462)" />
    <radialGradient
       cx="32"
       cy="14.5"
       r="26"
       fx="32"
       fy="14.5"
       id="radialGradient3935"
       xlink:href="#linearGradient3901"
       gradientUnits="userSpaceOnUse"
       gradientTransform="matrix(1,0,0,0.05769231,0,13.663462)" />
    <radialGradient
       cx="32"
       cy="14.5"
       r="26"
       fx="32"
       fy="14.5"
       id="radialGradient3939"
       xlink:href="#linearGradient3901"
       gradientUnits="userSpaceOnUse"
       gradientTransform="matrix(1,0,0,0.05769231,0,13.663462)" />
    <radialGradient
       cx="32"
       cy="14.5"
       r="26"
       fx="32"
       fy="14.5"
       id="radialGradient3943"
       xlink:href="#linearGradient3901"
       gradientUnits="userSpaceOnUse"
       gradientTransform="matrix(1,0,0,0.05769231,0,13.663462)" />
    <radialGradient
       cx="32"
       cy="14.5"
       r="26"
       fx="32"
       fy="14.5"
       id="radialGradient3947"
       xlink:href="#linearGradient3901"
       gradientUnits="userSpaceOnUse"
       gradientTransform="matrix(1,0,0,0.05769231,0,13.663462)" />
    <radialGradient
       cx="32"
       cy="14.5"
       r="26"
       fx="32"
       fy="14.5"
       id="radialGradient3951"
       xlink:href="#linearGradient3901"
       gradientUnits="userSpaceOnUse"
       gradientTransform="matrix(1,0,0,0.05769231,0,13.663462)" />
    <radialGradient
       cx="32"
       cy="14.5"
       r="26"
       fx="32"
       fy="14.5"
       id="radialGradient3955"
       xlink:href="#linearGradient3901"
       gradientUnits="userSpaceOnUse"
       gradientTransform="matrix(1,0,0,0.05769231,0,13.663462)" />
    <radialGradient
       cx="32"
       cy="14.5"
       r="26"
       fx="32"
       fy="14.5"
       id="radialGradient3959"
       xlink:href="#linearGradient3901"
       gradientUnits="userSpaceOnUse"
       gradientTransform="matrix(1,0,0,0.05769231,0,13.663462)" />
    <radialGradient
       cx="32"
       cy="14.5"
       r="26"
       fx="32"
       fy="14.5"
       id="radialGradient3963"
       xlink:href="#linearGradient3901"
       gradientUnits="userSpaceOnUse"
       gradientTransform="matrix(1,0,0,0.05769231,0,13.663462)" />
    <radialGradient
       cx="32"
       cy="14.5"
       r="26"
       fx="32"
       fy="14.5"
       id="radialGradient3967"
       xlink:href="#linearGradient3901"
       gradientUnits="userSpaceOnUse"
       gradientTransform="matrix(1,0,0,0.05769231,0,13.663462)" />
    <filter
       x="-0.10363991"
       y="-0.14249329"
       width="1.2072798"
       height="1.2849866"
       color-interpolation-filters="sRGB"
       id="filter4339-1">
      <feGaussianBlur
         id="feGaussianBlur4341-6"
         stdDeviation="0.95086131" />
    </filter>
    <linearGradient
       x1="65"
       y1="6"
       x2="65"
       y2="86"
       id="linearGradient3930"
       xlink:href="#linearGradient3901"
       gradientUnits="userSpaceOnUse" />
    <linearGradient
       id="linearGradient3700-79">
      <stop
         offset="0"
         style="stop-color:#d2181a;stop-opacity:1;"
         id="stop3702-15" />
      <stop
         offset="1"
         style="stop-color:#dd191b;stop-opacity:1;"
         id="stop3704-7" />
    </linearGradient>
    <linearGradient
       gradientUnits="userSpaceOnUse"
       xlink:href="#linearGradient5105-8"
       id="linearGradient3888"
       y2="80"
       x2="48"
       y1="16"
       x1="48" />
    <linearGradient
       id="linearGradient5105-8">
      <stop
         offset="0"
         style="stop-color:#f5f5f5;stop-opacity:1"
         id="stop5107-4" />
      <stop
         offset="1"
         style="stop-color:#ebebeb;stop-opacity:1"
         id="stop5109-4" />
    </linearGradient>
    <linearGradient
       gradientUnits="userSpaceOnUse"
       xlink:href="#linearGradient3700-79"
       id="linearGradient3201"
       y2="5.9877172"
       x2="48"
       y1="90"
       x1="48" />
    <linearGradient
       id="linearGradient8265-821-176-38-919-66-249-7-7-6-5-0">
      <stop
         offset="0"
         style="stop-color:#ffffff;stop-opacity:1"
         id="stop2687-1-9-3-0-3" />
      <stop
         offset="1"
         style="stop-color:#ffffff;stop-opacity:0"
         id="stop2689-5-4-9-8-5" />
    </linearGradient>
    <linearGradient
       gradientTransform="matrix(1.8236425,0,0,2.8764142,4.1473022,-10.570708)"
       gradientUnits="userSpaceOnUse"
       xlink:href="#linearGradient8265-821-176-38-919-66-249-7-7-6-5-0"
       id="linearGradient3114"
       y2="24.627615"
       x2="20.054544"
       y1="15.298182"
       x1="16.626165" />
    <linearGradient
       spreadMethod="reflect"
       gradientUnits="userSpaceOnUse"
       xlink:href="#linearGradient3892-3"
       id="linearGradient3228-3"
       y2="88"
       x2="48"
       y1="88"
       x1="90" />
    <linearGradient
       id="linearGradient3892-3">
      <stop
         offset="0"
         style="stop-color:#000000;stop-opacity:0.58823532"
         id="stop3894-6" />
      <stop
         offset="0.11780351"
         style="stop-color:#000000;stop-opacity:0.47058824"
         id="stop3896-0" />
      <stop
         offset="0.23809524"
         style="stop-color:#000000;stop-opacity:0.39215687"
         id="stop3898-8" />
      <stop
         offset="1"
         style="stop-color:#000000;stop-opacity:0.3137255"
         id="stop3900-3" />
    </linearGradient>
    <linearGradient
       spreadMethod="reflect"
       gradientUnits="userSpaceOnUse"
       xlink:href="#linearGradient4384"
       id="linearGradient4429-5"
       y2="82.454597"
       x2="112.12357"
       y1="82"
       x1="48" />
    <linearGradient
       gradientTransform="matrix(1,0,0,-1,0,92)"
       gradientUnits="userSpaceOnUse"
       xlink:href="#linearGradient4384"
       id="linearGradient4390-4"
       y2="-40"
       x2="48"
       y1="88"
       x1="48" />
    <radialGradient
       gradientTransform="matrix(1,-6.7114942e-8,8.4282233e-8,1.2557894,109.99999,-24.505592)"
       gradientUnits="userSpaceOnUse"
       xlink:href="#linearGradient4367-3"
       id="radialGradient4375-1"
       fy="87.792389"
       fx="48"
       r="42"
       cy="87.792389"
       cx="48" />
    <clipPath
       id="clipPath4355-8">
      <rect
         style="fill:#ffffff;fill-opacity:1;fill-rule:nonzero;stroke:none"
         id="rect4357-5"
         y="6"
         x="6"
         ry="6"
         rx="6"
         height="80"
         width="84" />
    </clipPath>
    <linearGradient
       gradientTransform="matrix(1.0238095,0,0,1.0119048,-1.1428571,-98.071429)"
       gradientUnits="userSpaceOnUse"
       xlink:href="#ButtonShadow-0-2"
       id="linearGradient3026-3"
       y2="90.238609"
       x2="32.251034"
       y1="6.1317081"
       x1="32.251034" />
    <linearGradient
       gradientTransform="translate(0,-97)"
       gradientUnits="userSpaceOnUse"
       xlink:href="#ButtonShadow-0-2"
       id="linearGradient3721-3"
       y2="90.238609"
       x2="32.251034"
       y1="6.1317081"
       x1="32.251034" />
    <linearGradient
       gradientTransform="matrix(1.0238095,0,0,1.0119048,-1.1428571,-98.071429)"
       gradientUnits="userSpaceOnUse"
       xlink:href="#ButtonShadow-0-2"
       id="linearGradient3725-4"
       y2="90.238609"
       x2="32.251034"
       y1="6.1317081"
       x1="32.251034" />
    <linearGradient
       gradientTransform="matrix(1.0238095,0,0,1.0119048,-1.1428571,-98.071429)"
       gradientUnits="userSpaceOnUse"
       xlink:href="#ButtonShadow-0-2"
       id="linearGradient3772-2"
       y2="90.238609"
       x2="32.251034"
       y1="6.1317081"
       x1="32.251034" />
    <linearGradient
       gradientTransform="matrix(1.0238095,0,0,1.0119048,-1.1428571,-98.071429)"
       gradientUnits="userSpaceOnUse"
       xlink:href="#ButtonShadow-0-2"
       id="linearGradient3780-2"
       y2="90.238609"
       x2="32.251034"
       y1="6.1317081"
       x1="32.251034" />
    <linearGradient
       gradientTransform="matrix(1.0058652,0,0,0.994169,100,0)"
       gradientUnits="userSpaceOnUse"
       id="ButtonShadow-0-2"
       y2="7.0165396"
       x2="45.447727"
       y1="92.539597"
       x1="45.447727">
      <stop
         offset="0"
         style="stop-color:#000000;stop-opacity:1"
         id="stop3750-8-9" />
      <stop
         offset="1"
         style="stop-color:#000000;stop-opacity:0.58823532"
         id="stop3752-5-5" />
    </linearGradient>
    <linearGradient
       gradientUnits="userSpaceOnUse"
       xlink:href="#linearGradient3737-8"
       id="linearGradient3613-5"
       y2="138.66119"
       x2="48"
       y1="20.220806"
       x1="48" />
    <filter
       id="filter3794-9"
       color-interpolation-filters="sRGB"
       height="1.3839999"
       width="1.3839999"
       y="-0.192"
       x="-0.192">
      <feGaussianBlur
         stdDeviation="5.28"
         id="feGaussianBlur3796-1" />
    </filter>
    <filter
       id="filter3174-8"
       color-interpolation-filters="sRGB">
      <feGaussianBlur
         stdDeviation="1.71"
         id="feGaussianBlur3176-6" />
    </filter>
    <linearGradient
       id="linearGradient3737-8">
      <stop
         offset="0"
         style="stop-color:#ffffff;stop-opacity:1"
         id="stop3739-7" />
      <stop
         offset="1"
         style="stop-color:#ffffff;stop-opacity:0"
         id="stop3741-2" />
    </linearGradient>
    <linearGradient
       gradientTransform="scale(1.0058652,0.994169)"
       gradientUnits="userSpaceOnUse"
       id="ButtonShadow-3"
       y2="7.0165396"
       x2="45.447727"
       y1="92.539597"
       x1="45.447727">
      <stop
         offset="0"
         style="stop-color:#000000;stop-opacity:1"
         id="stop3750-0" />
      <stop
         offset="1"
         style="stop-color:#000000;stop-opacity:0.58823532"
         id="stop3752-50" />
    </linearGradient>
    <linearGradient
       id="linearGradient4367-3">
      <stop
         offset="0"
         style="stop-color:#ffffff;stop-opacity:0.71755725"
         id="stop4369-4" />
      <stop
         offset="1"
         style="stop-color:#ffffff;stop-opacity:1"
         id="stop4371-1" />
    </linearGradient>
    <linearGradient
       id="linearGradient4384">
      <stop
         offset="0"
         style="stop-color:#ffffff;stop-opacity:1"
         id="stop4386" />
      <stop
         offset="1"
         style="stop-color:#ffffff;stop-opacity:0"
         id="stop4388" />
    </linearGradient>
    <linearGradient
       inkscape:collect="always"
       xlink:href="#linearGradient3737-8"
       id="linearGradient3501"
       gradientUnits="userSpaceOnUse"
       x1="48"
       y1="20.220806"
       x2="48"
       y2="138.66119" />
    <linearGradient
       inkscape:collect="always"
       xlink:href="#linearGradient3737-8"
       id="linearGradient3503"
       gradientUnits="userSpaceOnUse"
       x1="48"
       y1="20.220806"
       x2="48"
       y2="138.66119" />
    <linearGradient
       inkscape:collect="always"
       xlink:href="#linearGradient4384"
       id="linearGradient3514"
       gradientUnits="userSpaceOnUse"
       spreadMethod="reflect"
       x1="48"
       y1="82"
       x2="112.12357"
       y2="82.454597"
       gradientTransform="translate(-113.98438,-86.984375)" />
    <linearGradient
       inkscape:collect="always"
       xlink:href="#linearGradient4384"
       id="linearGradient3517"
       gradientUnits="userSpaceOnUse"
       gradientTransform="matrix(1,0,0,-1,-113.98438,5.015625)"
       x1="48"
       y1="88"
       x2="48"
       y2="-40" />
    <linearGradient
       inkscape:collect="always"
       xlink:href="#linearGradient8265-821-176-38-919-66-249-7-7-6-5-0"
       id="linearGradient3520"
       gradientUnits="userSpaceOnUse"
       gradientTransform="matrix(1.8236425,0,0,2.8764142,-149.83708,-97.555083)"
       x1="16.626165"
       y1="15.298182"
       x2="20.054544"
       y2="24.627615" />
    <linearGradient
       inkscape:collect="always"
       xlink:href="#linearGradient3700-79"
       id="linearGradient3523"
       gradientUnits="userSpaceOnUse"
       x1="48"
       y1="90"
       x2="48"
       y2="5.9877172"
       gradientTransform="translate(-113.98438,-86.984375)" />
    <linearGradient
       inkscape:collect="always"
       xlink:href="#linearGradient8265-821-176-38-919-66-249-7-7-6-5-0"
       id="linearGradient4315"
       gradientUnits="userSpaceOnUse"
       gradientTransform="matrix(1.8236425,0,0,2.8764142,-149.83708,-97.555083)"
       x1="16.626165"
       y1="15.298182"
       x2="20.054544"
       y2="24.627615" />
    <linearGradient
       inkscape:collect="always"
       xlink:href="#linearGradient3737-8"
       id="linearGradient4317"
       gradientUnits="userSpaceOnUse"
       x1="48"
       y1="20.220806"
       x2="48"
       y2="138.66119" />
    <linearGradient
       inkscape:collect="always"
       xlink:href="#linearGradient3700-79"
       id="linearGradient4330"
       gradientUnits="userSpaceOnUse"
       gradientTransform="translate(-113.98438,-86.984375)"
       x1="48"
       y1="90"
       x2="48"
       y2="5.9877172" />
    <linearGradient
       inkscape:collect="always"
       xlink:href="#linearGradient4384"
       id="linearGradient4332"
       gradientUnits="userSpaceOnUse"
       gradientTransform="matrix(1,0,0,-1,-113.98438,5.015625)"
       x1="48"
       y1="88"
       x2="48"
       y2="-40" />
    <linearGradient
       inkscape:collect="always"
       xlink:href="#linearGradient4384"
       id="linearGradient4334"
       gradientUnits="userSpaceOnUse"
       gradientTransform="translate(-113.98438,-86.984375)"
       spreadMethod="reflect"
       x1="48"
       y1="82"
       x2="112.12357"
       y2="82.454597" />
    <linearGradient
       inkscape:collect="always"
       xlink:href="#linearGradient8265-821-176-38-919-66-249-7-7-6-5-0"
       id="linearGradient4336"
       gradientUnits="userSpaceOnUse"
       gradientTransform="matrix(1.8236425,0,0,2.8764142,-149.83708,-97.555083)"
       x1="16.626165"
       y1="15.298182"
       x2="20.054544"
       y2="24.627615" />
    <linearGradient
       inkscape:collect="always"
       xlink:href="#linearGradient3737-8"
       id="linearGradient4338"
       gradientUnits="userSpaceOnUse"
       x1="48"
       y1="20.220806"
       x2="48"
       y2="138.66119" />
    <linearGradient
       inkscape:collect="always"
       xlink:href="#ButtonShadow-0-2"
       id="linearGradient4383"
       gradientUnits="userSpaceOnUse"
       gradientTransform="matrix(1.0238095,0,0,1.0119048,-1.1428571,-98.071429)"
       x1="32.251034"
       y1="6.1317081"
       x2="32.251034"
       y2="90.238609" />
    <linearGradient
       inkscape:collect="always"
       xlink:href="#ButtonShadow-0-2"
       id="linearGradient4385"
       gradientUnits="userSpaceOnUse"
       gradientTransform="matrix(1.0238095,0,0,1.0119048,-1.1428571,-98.071429)"
       x1="32.251034"
       y1="6.1317081"
       x2="32.251034"
       y2="90.238609" />
    <linearGradient
       inkscape:collect="always"
       xlink:href="#ButtonShadow-0-2"
       id="linearGradient4387"
       gradientUnits="userSpaceOnUse"
       gradientTransform="matrix(1.0238095,0,0,1.0119048,-1.1428571,-98.071429)"
       x1="32.251034"
       y1="6.1317081"
       x2="32.251034"
       y2="90.238609" />
    <linearGradient
       inkscape:collect="always"
       xlink:href="#ButtonShadow-0-2"
       id="linearGradient4389"
       gradientUnits="userSpaceOnUse"
       gradientTransform="matrix(1.0238095,0,0,1.0119048,-1.1428571,-98.071429)"
       x1="32.251034"
       y1="6.1317081"
       x2="32.251034"
       y2="90.238609" />
    <linearGradient
       inkscape:collect="always"
       xlink:href="#ButtonShadow-0-2"
       id="linearGradient4391"
       gradientUnits="userSpaceOnUse"
       gradientTransform="translate(0,-97)"
       x1="32.251034"
       y1="6.1317081"
       x2="32.251034"
       y2="90.238609" />
    <linearGradient
       inkscape:collect="always"
       xlink:href="#linearGradient3700-79"
       id="linearGradient4393"
       gradientUnits="userSpaceOnUse"
       gradientTransform="translate(-113.98438,-86.984375)"
       x1="48"
       y1="90"
       x2="48"
       y2="5.9877172" />
    <linearGradient
       inkscape:collect="always"
       xlink:href="#linearGradient4384"
       id="linearGradient4395"
       gradientUnits="userSpaceOnUse"
       gradientTransform="matrix(1,0,0,-1,-113.98438,5.015625)"
       x1="48"
       y1="88"
       x2="48"
       y2="-40" />
    <linearGradient
       inkscape:collect="always"
       xlink:href="#linearGradient4384"
       id="linearGradient4397"
       gradientUnits="userSpaceOnUse"
       gradientTransform="translate(-113.98438,-86.984375)"
       spreadMethod="reflect"
       x1="48"
       y1="82"
       x2="112.12357"
       y2="82.454597" />
    <linearGradient
       inkscape:collect="always"
       xlink:href="#linearGradient8265-821-176-38-919-66-249-7-7-6-5-0"
       id="linearGradient4399"
       gradientUnits="userSpaceOnUse"
       gradientTransform="matrix(1.8236425,0,0,2.8764142,-149.83708,-97.555083)"
       x1="16.626165"
       y1="15.298182"
       x2="20.054544"
       y2="24.627615" />
    <linearGradient
       inkscape:collect="always"
       xlink:href="#linearGradient3737-8"
       id="linearGradient4401"
       gradientUnits="userSpaceOnUse"
       x1="48"
       y1="20.220806"
       x2="48"
       y2="138.66119" />
    <linearGradient
       inkscape:collect="always"
       xlink:href="#linearGradient3892-3"
       id="linearGradient4403"
       gradientUnits="userSpaceOnUse"
       spreadMethod="reflect"
       x1="90"
       y1="88"
       x2="48"
       y2="88" />
  </defs>
  <metadata
     id="metadata2413">
    <rdf:RDF>
      <cc:Work
         rdf:about="">
        <dc:format>image/svg+xml</dc:format>
        <dc:type
           rdf:resource="http://purl.org/dc/dcmitype/StillImage" />
        <dc:title></dc:title>
      </cc:Work>
    </rdf:RDF>
  </metadata>
  <g
     id="g4340"
     transform="translate(113.98438,86.984375)">
    <g
       transform="translate(-113.98438,-86.984375)"
       style="display:inline"
       id="layer3-3">
      <path
         style="opacity:0.07999998;fill:url(#linearGradient4383);fill-opacity:1;fill-rule:nonzero;stroke:none;display:inline"
         id="path3786-3"
         transform="scale(1,-1)"
         d="m 12,-95.03125 c -5.5110903,0 -10.03125,4.52016 -10.03125,10.03125 l 0,71 c 0,5.5110902 4.5201598,10.03125 10.03125,10.03125 l 72,0 c 5.51109,0 10.03125,-4.5201597 10.03125,-10.03125 l 0,-71 c 0,-5.51109 -4.52016,-10.03125 -10.03125,-10.03125 l -72,0 z"
         inkscape:connector-curvature="0" />
      <path
         style="opacity:0.1;fill:url(#linearGradient4385);fill-opacity:1;fill-rule:nonzero;stroke:none;display:inline"
         id="path3778-6"
         transform="scale(1,-1)"
         d="m 12,-94.03125 c -4.971633,0 -9.03125,4.059617 -9.03125,9.03125 l 0,71 c 0,4.9716329 4.0596171,9.03125 9.03125,9.03125 l 72,0 c 4.971633,0 9.03125,-4.059617 9.03125,-9.03125 l 0,-71 c 0,-4.971633 -4.059617,-9.03125 -9.03125,-9.03125 l -72,0 z"
         inkscape:connector-curvature="0" />
      <path
         style="opacity:0.2;fill:url(#linearGradient4387);fill-opacity:1;fill-rule:nonzero;stroke:none;display:inline"
         id="path3770-8"
         transform="scale(1,-1)"
         d="m 12,-93 c -4.4091333,0 -8,3.590867 -8,8 l 0,71 c 0,4.4091333 3.5908667,8 8,8 l 72,0 c 4.409133,0 8,-3.5908667 8,-8 l 0,-71 c 0,-4.409133 -3.590867,-8 -8,-8 l -72,0 z"
         inkscape:connector-curvature="0" />
      <rect
         style="opacity:0.3;fill:url(#linearGradient4389);fill-opacity:1;fill-rule:nonzero;stroke:none;display:inline"
         id="rect3723-1"
         transform="scale(1,-1)"
         y="-92"
         x="5"
         ry="7"
         rx="7"
         height="85"
         width="86" />
      <rect
         style="opacity:0.45;fill:url(#linearGradient4391);fill-opacity:1;fill-rule:nonzero;stroke:none;display:inline"
         id="rect3716-2"
         transform="scale(1,-1)"
         y="-91"
         x="6"
         ry="6"
         rx="6"
         height="84"
         width="84" />
    </g>
    <g
       id="g4319">
      <rect
         style="fill:url(#linearGradient4393);fill-opacity:1;fill-rule:nonzero;stroke:none"
         id="rect2419-6"
         y="-80.984375"
         x="-107.98438"
         ry="6"
         rx="6"
         height="84"
         width="84" />
      <g
         transform="matrix(0.34327275,0,0,0.34327275,-186.54393,-50.357019)"
         id="g3536">
        <path
           style="fill:#ffffff;fill-opacity:1"
           d="m 382.42346,-49.690461 -58.79552,7.599421 c -32.34762,4.176428 -59.18801,7.859646 -59.59546,8.266036 -0.80121,0.799142 4.76491,14.919683 6.66616,16.932044 0.91084,0.964061 9.89519,-0.103988 42.13012,-4.799635 22.54364,-3.283922 41.95673,-5.863425 43.06339,-5.866219 1.26775,-0.0032 7.71457,5.699478 17.46533,15.465488 11.83177,11.85027144 16.07805,15.4798274 17.99863,15.4654884 1.38166,-0.01032 12.24611,-1.84547 24.26482,-3.99969496 12.01871,-2.15422504 22.21199,-4.08003904 22.53162,-4.39966504 0.76678,-0.766789 2.43163,0.648185 -28.53116,-23.4648794 L 382.42346,-49.690461 z M 357.49202,7.3718574 c -2.91776,0.02018 -79.24601,13.7843446 -79.86058,14.3989026 -0.72163,0.721639 5.44579,17.590592 7.06613,19.331861 0.89835,0.9654 5.51336,0.327531 21.59836,-2.799787 11.25318,-2.187899 21.06199,-3.866372 21.73167,-3.866372 0.66968,0 3.7244,4.240944 6.79948,9.465945 3.07507,5.225003 5.87169,9.463833 6.26619,9.465943 0.39451,0.002 10.69826,-2.1224 22.79827,-4.66631 12.1,-2.543907 22.32334,-4.897315 22.79826,-5.332925 1.17641,-1.07906 -27.15523,-36.0113826 -29.19778,-35.9972576 z M 330.02745,73.63348 c -1.20648,0.27779 -9.84854,2.19941 -19.19854,4.26634 -9.35,2.06693 -17.56841,4.30934 -18.26527,4.93295 -1.01024,0.90405 -0.51635,3.20174 2.39982,11.33247 3.07773,8.58123 3.95757,10.15394 5.73289,10.13257 1.16031,-0.014 10.83972,-2.11747 21.46503,-4.79964 10.62532,-2.68218 19.594,-5.1951 19.86516,-5.46625 0.27116,-0.27116 -1.85132,-5.05632 -4.66632,-10.66585 -4.49928,-8.96587 -5.40444,-10.17661 -7.33277,-9.73259 z"
           id="path3538"
           inkscape:connector-curvature="0" />
      </g>
      <path
         style="opacity:0.3;fill:url(#linearGradient4395);fill-opacity:1;fill-rule:nonzero;stroke:none"
         id="rect4377-4"
         inkscape:connector-curvature="0"
         d="m -101.98438,-0.984375 c -3.324,0 -6,-2.676 -6,-6 l 0,-68 c 0,-3.324 2.676,-6 6,-6 l 72,0 c 3.324,0 6,2.676 6,6 l 0,68 c 0,3.324 -2.676,6 -6,6 z m 0,-0.96875 72,0 c 2.80489,0 5.03125,-2.22636 5.03125,-5.03125 l 0,-68 c 0,-2.80489 -2.22636,-5.03125 -5.03125,-5.03125 l -72,0 c -2.80489,0 -5.03125,2.22636 -5.03125,5.03125 l 0,68 c 0,2.80489 2.22636,5.03125 5.03125,5.03125 z" />
      <path
         style="opacity:0.1;fill:url(#linearGradient4397);fill-opacity:1;fill-rule:nonzero;stroke:none"
         id="rect4414-7"
         inkscape:connector-curvature="0"
         d="m -107.98438,-8.984375 0,2 c 0,3.324 2.676,6 6,6 l 72,0 c 3.324,0 6,-2.676 6,-6 l 0,-2 c 0,3.324 -2.676,6 -6,6 l -72,0 c -3.324,0 -6,-2.676 -6,-6 z" />
      <g
         id="g3531"
         transform="translate(40,0)">
        <path
           d="m -141.98438,-80.984375 c -3.31364,0 -5.98339,2.659159 -6,5.96875 -5e-5,0.01035 0,0.02089 0,0.03125 l 0.0313,46.90625 c 2.41652,-0.05289 82.134587,-19.530603 83.96875,-20.46875 l 0,-26.4375 c 0,-3.324 -2.676,-6 -6,-6 l -72,0 z"
           inkscape:connector-curvature="0"
           id="path5237-7"
           style="opacity:0.2;fill:url(#linearGradient4399);fill-opacity:1;fill-rule:evenodd;stroke:none;display:inline;enable-background:new" />
        <g
           transform="translate(-113.98438,-86.984375)"
           style="display:inline"
           id="layer5-7">
          <rect
             transform="translate(-40,0)"
             style="opacity:0.1;fill:url(#linearGradient4401);fill-opacity:1;fill-rule:nonzero;stroke:#ffffff;stroke-width:0.5;stroke-linecap:round;stroke-linejoin:miter;stroke-miterlimit:4;stroke-opacity:1;stroke-dasharray:none;stroke-dashoffset:0;filter:url(#filter3794-9)"
             id="rect3171-9"
             clip-path="url(#clipPath4355-8)"
             y="15"
             x="15"
             ry="12"
             rx="12"
             height="62"
             width="66" />
        </g>
      </g>
    </g>
    <g
       transform="translate(-113.98438,-86.984375)"
       style="display:inline"
       id="layer4-1">
      <path
         style="fill:url(#linearGradient4403);fill-opacity:1;fill-rule:nonzero;stroke:none;display:inline"
         id="path3888-5"
         inkscape:connector-curvature="0"
         d="m 6,80 0,4 c 0,3.324 2.676,6 6,6 l 72,0 c 3.324,0 6,-2.676 6,-6 l 0,-4 c 0,3.324 -2.676,6 -6,6 L 12,86 C 8.676,86 6,83.324 6,80 z" />
      <path
         style="opacity:0.1;color:#000000;fill:#000000;fill-opacity:1;fill-rule:nonzero;stroke:none;stroke-width:1.5;marker:none;visibility:visible;display:inline;overflow:visible;enable-background:accumulate"
         id="rect4345-5"
         inkscape:connector-curvature="0"
         d="m 6,82 0,2 c 0,3.324 2.676,6 6,6 l 72,0 c 3.324,0 6,-2.676 6,-6 l 0,-2 c 0,3.324 -2.676,6 -6,6 L 12,88 C 8.676,88 6,85.324 6,82 z" />
      <path
         style="opacity:0.15;color:#000000;fill:#000000;fill-opacity:1;fill-rule:nonzero;stroke:none;stroke-width:1.5;marker:none;visibility:visible;display:inline;overflow:visible;enable-background:accumulate"
         id="rect4336-5"
         inkscape:connector-curvature="0"
         d="m 6,83 0,1 c 0,3.324 2.676,6 6,6 l 72,0 c 3.324,0 6,-2.676 6,-6 l 0,-1 c 0,3.324 -2.676,6 -6,6 L 12,89 C 8.676,89 6,86.324 6,83 z" />
    </g>
  </g>
  <g
     id="g3312"
     transform="matrix(0.23439286,0,0,0.23439286,99.56631,24.81662)">
    <path
       style="fill:#ffffff;fill-opacity:1"
       d="m 261.6875,3.78125 c -39.66227,5.400158 -79.56761,9.620653 -119.03125,16.125 -3.01317,3.286638 1.12106,8.281802 1.9375,11.96875 1.72412,4.129063 3.45323,10.678714 9.40625,8.96875 27.18765,-2.614777 54.47448,-8.200443 81.46875,-10.71875 12.2604,9.034547 20.99379,22.158811 33.78125,30.375 7.87251,0.622727 15.90205,-2.450064 23.78221,-3.221779 8.6489,-2.046663 18.14281,-2.285534 26.24904,-5.746971 2.3249,-4.196161 -4.8969,-6.303136 -6.87875,-8.963241 C 295.81956,29.516022 279.12788,16.720371 262.5,3.65625 l -0.8125,0.125 z m -24.875,57.0625 c -26.98618,4.340561 -54.07115,9.002632 -80.78125,14.59375 -2.71701,4.054174 1.89265,9.266447 2.53125,13.5 1.85791,3.91151 2.79239,11.3552 8.8125,10 13.31208,-1.37281 26.82572,-5.539629 39.8125,-6.65625 4.74588,5.794417 7.42973,13.1326 12.53125,18.5625 15.87452,-2.71717 31.86885,-5.97819 47.34375,-10.25 3.15169,-3.131586 -2.24885,-6.960226 -3.69375,-9.83125 -8.15652,-10.126083 -15.73916,-21.346668 -25.55625,-29.73125 -0.31358,-0.111192 -0.65928,-0.289588 -1,-0.1875 z M 209.5,127.125 c -12.85608,3.27441 -26.42649,4.84744 -38.8125,9.6875 -3.16685,4.82413 1.68193,10.51044 2.56173,15.40965 1.41552,4.30928 3.67523,11.66493 9.68827,9.15285 13.31232,-3.22864 27.16985,-5.84931 39.9375,-10.46875 1.63499,-4.21372 -2.98423,-8.8392 -4.28125,-12.96875 -2.46022,-3.35106 -3.72793,-11.0318 -9.09375,-10.8125 z"
       id="path3294"
       inkscape:connector-curvature="0" />
    <path
       style="fill:#e72b2d;fill-opacity:1"
       d="m 174.9608,216.0909 c -0.50322,-0.9625 -7.02857,-20.875 -14.50079,-44.25 l -13.58584,-42.5 -9.95253,-59.000001 c -5.80961,-34.440216 -9.58405,-59.381737 -9.06735,-59.917048 0.48685,-0.504376 31.57736,-4.887089 69.09003,-9.739362 66.02296,-8.540085 68.2906,-8.76667 70.88544,-7.082952 1.47433,0.956649 17.59697,13.390286 35.8281,27.630303 24.9707,19.504176 33.14411,26.411203 33.13372,28 -0.0366,5.593521 -14.91032,126.92625 -15.64363,127.61312 -0.86647,0.81159 -142.17727,40.99594 -144.1648,40.99594 -0.60908,0 -1.51913,-0.7875 -2.02235,-1.75 z m 26.66332,-61.17749 c 10.62532,-2.68218 19.54061,-5.09854 19.81176,-5.36969 0.27116,-0.27116 -1.81017,-5.08263 -4.62516,-10.69216 -4.49929,-8.96587 -5.38343,-10.13808 -7.31176,-9.69406 -1.20648,0.2778 -9.84359,2.19622 -19.19359,4.26315 -9.35,2.06693 -17.57015,4.26827 -18.26701,4.89188 -1.01024,0.90404 -0.52582,3.20035 2.39035,11.33109 3.07774,8.58122 3.99169,10.19325 5.76701,10.17187 1.16031,-0.014 10.80309,-2.21991 21.4284,-4.90208 z m 41.68125,-50.69013 c 12.1,-2.54391 22.38856,-4.9817 22.86348,-5.41731 1.17641,-1.07906 -27.19918,-35.967981 -29.24172,-35.953856 -2.91776,0.02018 -79.19268,13.726375 -79.80725,14.340935 -0.72163,0.72164 5.44986,17.634581 7.0702,19.375851 0.89835,0.9654 5.51808,0.37732 21.60307,-2.75 11.25319,-2.187901 21.00827,-3.978001 21.67795,-3.978001 0.66968,0 3.73357,4.275001 6.80865,9.500001 3.07507,5.225 5.91383,9.50172 6.30833,9.50383 0.39451,0.002 10.61729,-2.07754 22.71729,-4.62145 z m 51.8522,-49.336668 c 12.01871,-2.154227 22.11371,-4.178287 22.43333,-4.497912 0.76679,-0.766788 2.49113,0.653972 -28.47167,-23.45909 L 261.9331,5.757717 203.11923,13.351225 c -32.34762,4.17643 -59.14722,7.92601 -59.55467,8.332401 -0.80121,0.799142 4.70452,14.870765 6.60577,16.883127 0.91084,0.964061 9.91168,-0.04927 42.14661,-4.744916 22.54364,-3.283924 41.89387,-5.973058 43.00053,-5.975854 1.26775,-0.0032 7.73714,5.728908 17.4879,15.494916 11.83177,11.850271 16.06732,15.495584 17.9879,15.481245 1.38166,-0.01032 12.34559,-1.781305 24.3643,-3.935532 z"
       id="path3292"
       inkscape:connector-curvature="0" />
  </g>
  <g
     id="layer2"
     style="display:none">
    <rect
       width="86"
       height="85"
       rx="6"
       ry="6"
       x="5"
       y="7"
       id="rect3745"
       style="opacity:0.9;fill:url(#ButtonShadow);fill-opacity:1;fill-rule:nonzero;stroke:none;filter:url(#filter3174)" />
  </g>
  <g
     id="layer5"
     style="display:none">
    <rect
       width="66"
       height="62"
       rx="12"
       ry="12"
       x="15"
       y="15"
       clip-path="url(#clipPath4355)"
       id="rect3171"
       style="opacity:0.1;fill:url(#linearGradient3613);fill-opacity:1;fill-rule:nonzero;stroke:#ffffff;stroke-width:0.5;stroke-linecap:round;stroke-linejoin:miter;stroke-miterlimit:4;stroke-opacity:1;stroke-dasharray:none;stroke-dashoffset:0;filter:url(#filter3794)" />
  </g>
  <g
     id="layer2-5"
     style="display:none"
     transform="translate(-113.98438,-86.984375)">
    <rect
       width="86"
       height="85"
       rx="6"
       ry="6"
       x="5"
       y="7"
       id="rect3745-9"
       style="opacity:0.9;fill:url(#ButtonShadow-3);fill-opacity:1;fill-rule:nonzero;stroke:none;filter:url(#filter3174-8)" />
  </g>
</svg>
